<?xml version="1.0" standalone="no"?>
<!DOCTYPE svg PUBLIC "-//W3C//DTD SVG 20010904//EN"
 "http://www.w3.org/TR/2001/REC-SVG-20010904/DTD/svg10.dtd">
<svg version="1.0" xmlns="http://www.w3.org/2000/svg"
 width="700.000000pt" height="700.000000pt" viewBox="0 0 700.000000 700.000000"
 preserveAspectRatio="xMidYMid meet">
<metadata>
Created by potrace 1.14, written by Peter Selinger 2001-2017
</metadata>
<g transform="translate(0.000000,700.000000) scale(0.100000,-0.100000)"
fill="#000000" stroke="none">
<path d="M747 6253 c-4 -3 -7 -1243 -7 -2755 0 -2190 3 -2750 13 -2753 6 -3
410 -4 897 -3 l885 3 -75 40 c-51 27 -101 65 -156 120 -68 68 -90 97 -127 176
-70 143 -77 196 -77 550 l0 302 -103 106 c-173 178 -283 337 -393 566 -198
415 -252 859 -159 1322 33 164 83 309 165 479 108 226 245 418 419 589 l71 69
0 304 c0 355 7 407 77 551 37 79 59 108 127 176 55 55 104 93 154 118 39 21
72 40 72 43 0 7 -1776 5 -1783 -3z"/>
<path d="M4470 6256 c0 -3 33 -22 73 -42 111 -58 222 -175 281 -295 69 -143
76 -196 76 -550 l0 -302 108 -111 c173 -179 277 -330 388 -561 271 -567 271
-1223 0 -1790 -110 -230 -220 -388 -393 -566 l-103 -106 0 -302 c0 -354 -7
-407 -77 -550 -37 -79 -59 -108 -127 -176 -55 -55 -105 -93 -156 -120 l-75
-40 885 -3 c487 -1 891 0 898 3 10 3 12 560 10 2757 l-3 2753 -892 3 c-491 1
-893 0 -893 -2z"/>
<path d="M2695 5811 c-22 -10 -52 -31 -67 -47 -49 -52 -58 -91 -58 -238 l0
-135 73 34 c368 169 861 218 1302 130 140 -28 303 -79 410 -129 l75 -35 0 135
c0 147 -9 186 -58 238 -15 16 -45 37 -67 47 -38 18 -81 19 -805 19 -724 0
-767 -1 -805 -19z"/>
<path d="M3305 5124 c-335 -50 -620 -173 -855 -370 -284 -237 -470 -549 -552
-927 -19 -89 -22 -131 -22 -327 0 -196 3 -238 22 -327 144 -659 613 -1128
1277 -1275 86 -19 130 -22 320 -23 191 0 234 3 327 23 225 47 451 144 628 270
122 86 296 261 382 382 127 179 220 397 270 628 20 93 23 135 23 322 0 187 -3
229 -23 322 -142 660 -616 1137 -1269 1279 -77 16 -141 21 -298 24 -110 2
-213 1 -230 -1z m315 -487 c31 -16 54 -38 75 -72 l30 -48 3 -461 2 -461 215
-215 c222 -223 254 -266 255 -340 0 -94 -59 -180 -152 -220 -61 -26 -124 -23
-185 9 -55 29 -558 537 -578 583 -13 32 -15 113 -15 561 l0 523 26 52 c14 29
40 62 57 74 72 51 183 57 267 15z"/>
<path d="M2570 1472 c0 -152 12 -193 66 -244 64 -60 32 -58 866 -58 721 0 765
1 803 19 22 10 52 31 67 47 49 52 58 91 58 238 l0 135 -75 -35 c-496 -229
-1213 -228 -1712 1 l-73 34 0 -137z"/>
</g>
</svg>
